{"title":"Hang.Loose.2012.WEBRip XViD juggs","uid":8489916,"size":751137905,"categoryP":"video","categoryS":"movies","magnet":"?xt=urn:btih:bcda48047866e636d366a592770ccd9da368f405&amp;dn=Hang.Loose.2012.WEBRip+XViD+juggs&amp;tr=udp%3A%2F%2Ftracker.openbittorrent.com%3A80&amp;tr=udp%3A%2F%2Fopen.demonii.com%3A1337&amp;tr=udp%3A%2F%2Ftracker.coppersurfer.tk%3A6969&amp;tr=udp%3A%2F%2Fexodus.desync.com%3A6969","seeders":1,"leechers":0,"uploader":"juggs99","files":3,"time":1368978929,"description":"Source : CtrlHD(Thanks)\n &lt;a href=&quot;\nhttp://www.imdb.com/title/tt2139965/&quot; rel=&quot;nofollow&quot; target=&quot;_NEW&quot;&gt;\nhttp://www.imdb.com/title/tt2139965/&lt;/a&gt;\n\nFormat                                   : AVI\nFormat/Info                              : Audio Video Interleave\nFile size                                : 699 MiB\nDuration                                 : 1h 15mn\nOverall bit rate                         : 1 286 Kbps\nWriting library                          : VirtualDub build 32842/release\n\nVideo\nID                                       : 0\nFormat                                   : MPEG-4 Visual\nFormat profile                           : Advanced Simple@L5\nFormat settings, BVOP                    : 2\nFormat settings, QPel                    : No\nFormat settings, GMC                     : No warppoints\nFormat settings, Matrix                  : Default (H.263)\nMuxing mode                              : Packed bitstream\nCodec ID                                 : XVID\nCodec ID/Hint                            : XviD\nDuration                                 : 1h 15mn\nBit rate                                 : 1 149 Kbps\nWidth                                    : 640 pixels\nHeight                                   : 320 pixels\nDisplay aspect ratio                     : 2.000\nFrame rate                               : 23.976 fps\nColor space                              : YUV\nChroma subsampling                       : 4:2:0\nBit depth                                : 8 bits\nScan type                                : Progressive\nCompression mode                         : Lossy\nBits/(Pixel*Frame)                       : 0.234\nStream size                              : 624 MiB (89%)\nWriting library                          : XviD 1.2.0.dev47 (UTC 2006-11-01)\n\nAudio\nID                                       : 1\nFormat                                   : MPEG Audio\nFormat version                           : Version 1\nFormat profile                           : Layer 3\nCodec ID                                 : 55\nCodec ID/Hint                            : MP3\nDuration                                 : 1h 15mn\nBit rate mode                            : Constant\nBit rate                                 : 128 Kbps\nChannel(s)                               : 2 channels\nSampling rate                            : 44.1 KHz\nCompression mode                         : Lossy\nStream size                              : 69.6 MiB (10%)\nAlignment                                : Split accross interleaves\nInterleave, duration                     : 42 ms (1.00 video frame)\nInterleave, preload duration             : 500 ms\nWriting library                          : LAME3.99r\nEncoding settings                        : -m s -V 4 -q 3 -lowpass 17 -b 128\n &lt;a href=&quot;\nhttp://www.shotpix.com/images/98095520142530586601.png&quot; rel=&quot;nofollow&quot; target=&quot;_NEW&quot;&gt;\nhttp://www.shotpix.com/images/98095520142530586601.png&lt;/a&gt; &lt;a href=&quot;\nhttp://www.shotpix.com/images/57945597038198954788.png&quot; rel=&quot;nofollow&quot; target=&quot;_NEW&quot;&gt;\nhttp://www.shotpix.com/images/57945597038198954788.png&lt;/a&gt; &lt;a href=&quot;\nhttp://www.shotpix.com/images/52815321944531512548.png&quot; rel=&quot;nofollow&quot; target=&quot;_NEW&quot;&gt;\nhttp://www.shotpix.com/images/52815321944531512548.png&lt;/a&gt;","torrent":{"xt":"urn:btih:bcda48047866e636d366a592770ccd9da368f405","amp;dn":"Hang.Loose.2012.WEBRip+XViD+juggs","amp;tr":["udp%3A%2F%2Ftracker.openbittorrent.com%3A80","udp%3A%2F%2Fopen.demonii.com%3A1337","udp%3A%2F%2Ftracker.coppersurfer.tk%3A6969","udp%3A%2F%2Fexodus.desync.com%3A6969"],"infoHash":"bcda48047866e636d366a592770ccd9da368f405","infoHashBuffer":{"type":"Buffer","data":[188,218,72,4,120,102,230,54,211,102,165,146,119,12,205,157,163,104,244,5]},"announce":[],"urlList":[]}}